<svg width="115" height="50" viewBox="0 0 115 50" fill="none" xmlns="http://www.w3.org/2000/svg">
<rect width="115" height="50" fill="white"/>
<path fill-rule="evenodd" clip-rule="evenodd" d="M52 23.3334C51.0833 23.3334 50.3333 24.0834 50.3333 25C50.3333 25.9167 51.0833 26.6667 52 26.6667C52.9166 26.6667 53.6666 25.9167 53.6666 25C53.6666 24.0834 52.9166 23.3334 52 23.3334ZM62 23.3334C61.0833 23.3334 60.3333 24.0834 60.3333 25C60.3333 25.9167 61.0833 26.6667 62 26.6667C62.9166 26.6667 63.6666 25.9167 63.6666 25C63.6666 24.0834 62.9166 23.3334 62 23.3334ZM57 23.3334C56.0833 23.3334 55.3333 24.0834 55.3333 25C55.3333 25.9167 56.0833 26.6667 57 26.6667C57.9166 26.6667 58.6666 25.9167 58.6666 25C58.6666 24.0834 57.9166 23.3334 57 23.3334Z" fill="#6C757D"/>
<rect x="0.25" y="49.25" width="114.5" height="0.5" fill="#EAEAEA" stroke="#EAEAEA" stroke-width="0.5"/>
</svg>
