<svg width="66" height="27" viewBox="0 0 66 27" fill="none" xmlns="http://www.w3.org/2000/svg">
<rect x="0.200684" y="0.5" width="65" height="26" rx="13" fill="#DC3545"/>
<path d="M11.2124 18.5V8.54688H14.1519C15.0314 8.54688 15.8107 8.74284 16.4897 9.13477C17.1733 9.52669 17.702 10.0827 18.0757 10.8027C18.4494 11.5228 18.6362 12.3477 18.6362 13.2773V13.7764C18.6362 14.7197 18.4471 15.5492 18.0688 16.2646C17.6951 16.9801 17.1597 17.5316 16.4624 17.9189C15.7697 18.3063 14.9744 18.5 14.0767 18.5H11.2124ZM12.9419 9.94141V17.1191H14.0698C14.9767 17.1191 15.6717 16.8366 16.1548 16.2715C16.6424 15.7018 16.8908 14.8861 16.8999 13.8242V13.2705C16.8999 12.1904 16.6652 11.3656 16.1958 10.7959C15.7264 10.2262 15.0451 9.94141 14.1519 9.94141H12.9419ZM24.6177 18.5C24.5448 18.3587 24.481 18.1286 24.4263 17.8096C23.8976 18.361 23.2505 18.6367 22.4849 18.6367C21.742 18.6367 21.1359 18.4248 20.6665 18.001C20.1971 17.5771 19.9624 17.0531 19.9624 16.4287C19.9624 15.6403 20.2541 15.0365 20.8374 14.6172C21.4253 14.1934 22.2638 13.9814 23.353 13.9814H24.3716V13.4961C24.3716 13.1133 24.2645 12.8079 24.0503 12.5801C23.8361 12.3477 23.5103 12.2314 23.0728 12.2314C22.6945 12.2314 22.3846 12.3271 22.1431 12.5186C21.9015 12.7054 21.7808 12.9447 21.7808 13.2363H20.1196C20.1196 12.8307 20.2541 12.4525 20.5229 12.1016C20.7918 11.7461 21.1564 11.4681 21.6167 11.2676C22.0815 11.0671 22.5988 10.9668 23.1685 10.9668C24.0343 10.9668 24.7248 11.1855 25.2397 11.623C25.7547 12.056 26.019 12.6667 26.0327 13.4551V16.791C26.0327 17.4564 26.1261 17.9873 26.313 18.3838V18.5H24.6177ZM22.7925 17.3037C23.1206 17.3037 23.4282 17.224 23.7153 17.0645C24.007 16.9049 24.2257 16.6908 24.3716 16.4219V15.0273H23.4761C22.8608 15.0273 22.3983 15.1344 22.0884 15.3486C21.7785 15.5628 21.6235 15.8659 21.6235 16.2578C21.6235 16.5768 21.7284 16.832 21.938 17.0234C22.1522 17.2103 22.437 17.3037 22.7925 17.3037ZM29.314 11.1035L29.3618 11.958C29.9087 11.2972 30.6265 10.9668 31.5151 10.9668C33.0555 10.9668 33.8394 11.8486 33.8667 13.6123V18.5H32.2056V13.708C32.2056 13.2386 32.103 12.8923 31.8979 12.6689C31.6974 12.4411 31.367 12.3271 30.9067 12.3271C30.2368 12.3271 29.7378 12.6302 29.4097 13.2363V18.5H27.7485V11.1035H29.314ZM35.2749 14.7471C35.2749 13.5986 35.5438 12.6826 36.0815 11.999C36.6239 11.3109 37.3416 10.9668 38.2349 10.9668C39.078 10.9668 39.741 11.2607 40.2241 11.8486L40.2993 11.1035H41.7964V18.2744C41.7964 19.2451 41.4933 20.0107 40.8872 20.5713C40.2856 21.1318 39.4722 21.4121 38.4468 21.4121C37.9045 21.4121 37.3735 21.2982 36.854 21.0703C36.339 20.847 35.9471 20.5531 35.6782 20.1885L36.4644 19.1904C36.9748 19.7965 37.6037 20.0996 38.3511 20.0996C38.9025 20.0996 39.3377 19.9492 39.6567 19.6484C39.9757 19.3522 40.1353 18.9147 40.1353 18.3359V17.8369C39.6567 18.3701 39.0187 18.6367 38.2212 18.6367C37.3553 18.6367 36.6466 18.2926 36.0952 17.6045C35.5483 16.9163 35.2749 15.9639 35.2749 14.7471ZM36.9292 14.8906C36.9292 15.6335 37.0796 16.2191 37.3804 16.6475C37.6857 17.0713 38.1073 17.2832 38.645 17.2832C39.3149 17.2832 39.8117 16.9961 40.1353 16.4219V13.168C39.8208 12.6074 39.3286 12.3271 38.6587 12.3271C38.1118 12.3271 37.6857 12.5436 37.3804 12.9766C37.0796 13.4095 36.9292 14.0475 36.9292 14.8906ZM46.7661 18.6367C45.7134 18.6367 44.8589 18.3063 44.2026 17.6455C43.5509 16.9801 43.2251 16.096 43.2251 14.9932V14.7881C43.2251 14.0498 43.3664 13.3913 43.6489 12.8125C43.936 12.2292 44.3371 11.7757 44.8521 11.4521C45.367 11.1286 45.9412 10.9668 46.5747 10.9668C47.5819 10.9668 48.3589 11.2881 48.9058 11.9307C49.4572 12.5732 49.7329 13.4824 49.7329 14.6582V15.3281H44.8999C44.95 15.9388 45.1528 16.4219 45.5083 16.7773C45.8683 17.1328 46.3195 17.3105 46.8618 17.3105C47.6229 17.3105 48.2427 17.0029 48.7212 16.3877L49.6167 17.2422C49.3205 17.6842 48.924 18.0283 48.4272 18.2744C47.9351 18.516 47.3813 18.6367 46.7661 18.6367ZM46.5679 12.2998C46.1121 12.2998 45.743 12.4593 45.4604 12.7783C45.1825 13.0973 45.0047 13.5417 44.9272 14.1113H48.0923V13.9883C48.0558 13.4323 47.9077 13.013 47.6479 12.7305C47.3882 12.4434 47.0282 12.2998 46.5679 12.2998ZM54.9009 12.6211C54.6821 12.5846 54.4565 12.5664 54.2241 12.5664C53.4631 12.5664 52.9504 12.8581 52.686 13.4414V18.5H51.0249V11.1035H52.6108L52.6519 11.9307C53.0529 11.2881 53.6089 10.9668 54.3198 10.9668C54.5568 10.9668 54.7528 10.9987 54.9077 11.0625L54.9009 12.6211Z" fill="white"/>
</svg>
